<svg xmlns="http://www.w3.org/2000/svg" width="191" height="44" viewBox="0 0 191 44">
  <g id="Group_6971" data-name="Group 6971" transform="translate(-50 -35)">
    <g id="Group_6664" data-name="Group 6664" transform="translate(-872.698 -388.053)">
      <rect id="Rectangle_1097" data-name="Rectangle 1097" width="50.065" height="17.102" transform="translate(922.698 446.451)" fill="#fff"/>
      <g id="Group_6665" data-name="Group 6665" transform="translate(922.698 423.053)">
        <g id="Group_6664-2" data-name="Group 6664" transform="translate(0 0)">
          <path id="Path_2646" data-name="Path 2646" d="M928.256,441.5h-5.145v-2.211h9.009V441.5l-5.558,6.261h5.951v2.211H922.7v-2.211Z" transform="translate(-922.698 -435.215)" fill="#fff"/>
          <path id="Path_2647" data-name="Path 2647" d="M967.967,446.542a3.008,3.008,0,0,0,3.43.2,1.844,1.844,0,0,0,.785-.94h2.583a4.9,4.9,0,0,1-1.9,2.748,5.6,5.6,0,0,1-3.1.827,6.1,6.1,0,0,1-2.273-.4,4.718,4.718,0,0,1-1.715-1.147,5.152,5.152,0,0,1-1.085-1.777,6.506,6.506,0,0,1-.382-2.273,6.232,6.232,0,0,1,.392-2.232,5.165,5.165,0,0,1,2.841-2.976,5.535,5.535,0,0,1,2.221-.434,5.081,5.081,0,0,1,2.376.527,4.744,4.744,0,0,1,1.663,1.416,5.814,5.814,0,0,1,.94,2.025,7.549,7.549,0,0,1,.207,2.376h-7.707A2.964,2.964,0,0,0,967.967,446.542Zm3.317-5.62a2.062,2.062,0,0,0-1.6-.578,2.554,2.554,0,0,0-1.167.237,2.226,2.226,0,0,0-.744.589,2.159,2.159,0,0,0-.392.744,3.343,3.343,0,0,0-.134.7h4.773A3.4,3.4,0,0,0,971.284,440.921Z" transform="translate(-953.875 -434.351)" fill="#fff"/>
          <path id="Path_2648" data-name="Path 2648" d="M1022.773,449.889a3.621,3.621,0,0,1-.754,1.539,4.5,4.5,0,0,1-1.674,1.209,7.219,7.219,0,0,1-2.934.5,6.844,6.844,0,0,1-1.6-.2,5.1,5.1,0,0,1-1.488-.61,3.655,3.655,0,0,1-1.115-1.064,3.079,3.079,0,0,1-.507-1.56h2.914a1.673,1.673,0,0,0,.806,1.147,2.888,2.888,0,0,0,1.384.32,2.131,2.131,0,0,0,1.808-.744,2.922,2.922,0,0,0,.547-1.88v-1.405h-.041a2.906,2.906,0,0,1-1.354,1.25,4.38,4.38,0,0,1-1.849.4,4.664,4.664,0,0,1-2.066-.424,3.92,3.92,0,0,1-1.426-1.157,4.82,4.82,0,0,1-.816-1.715,8.112,8.112,0,0,1-.258-2.077,6.654,6.654,0,0,1,.3-1.994,5.211,5.211,0,0,1,.878-1.695,4.248,4.248,0,0,1,1.436-1.167,4.314,4.314,0,0,1,1.974-.434,4.13,4.13,0,0,1,1.849.393,3.192,3.192,0,0,1,1.333,1.322h.041v-1.426h2.79v10A7.19,7.19,0,0,1,1022.773,449.889Zm-4.019-3.554a2.3,2.3,0,0,0,.785-.661,2.932,2.932,0,0,0,.465-.94,3.9,3.9,0,0,0,.155-1.106,6.07,6.07,0,0,0-.124-1.25,3.129,3.129,0,0,0-.414-1.043,2.143,2.143,0,0,0-.764-.723,2.416,2.416,0,0,0-1.2-.269,2.153,2.153,0,0,0-1.064.248,2.237,2.237,0,0,0-.743.672,2.832,2.832,0,0,0-.434.971,4.785,4.785,0,0,0-.134,1.147,5.815,5.815,0,0,0,.114,1.147,3.089,3.089,0,0,0,.392,1.023,2.286,2.286,0,0,0,.734.744,2.076,2.076,0,0,0,1.136.289A2.334,2.334,0,0,0,1018.754,446.335Z" transform="translate(-989.868 -434.351)" fill="#fff"/>
          <path id="Path_2649" data-name="Path 2649" d="M1064.621,446.542a3.008,3.008,0,0,0,3.43.2,1.846,1.846,0,0,0,.785-.94h2.583a4.9,4.9,0,0,1-1.9,2.748,5.6,5.6,0,0,1-3.1.827,6.1,6.1,0,0,1-2.273-.4,4.72,4.72,0,0,1-1.715-1.147,5.152,5.152,0,0,1-1.085-1.777,6.506,6.506,0,0,1-.382-2.273,6.233,6.233,0,0,1,.393-2.232,5.164,5.164,0,0,1,2.841-2.976,5.533,5.533,0,0,1,2.221-.434,5.079,5.079,0,0,1,2.376.527,4.747,4.747,0,0,1,1.663,1.416,5.819,5.819,0,0,1,.94,2.025,7.547,7.547,0,0,1,.207,2.376H1063.9A2.965,2.965,0,0,0,1064.621,446.542Zm3.316-5.62a2.062,2.062,0,0,0-1.6-.578,2.554,2.554,0,0,0-1.167.237,2.223,2.223,0,0,0-.744.589,2.155,2.155,0,0,0-.392.744,3.325,3.325,0,0,0-.134.7h4.773A3.4,3.4,0,0,0,1067.938,440.921Z" transform="translate(-1026.292 -434.351)" fill="#fff"/>
          <path id="Path_2650" data-name="Path 2650" d="M1113.584,423.053v14.753h-2.934V423.053Z" transform="translate(-1063.519 -423.053)" fill="#fff"/>
        </g>
      </g>
      <g id="Group_6666" data-name="Group 6666" transform="translate(927.936 448.558)">
        <path id="Path_2651" data-name="Path 2651" d="M946.421,524.761v12.894h-2.835V524.761Z" transform="translate(-943.586 -524.761)" fill="#151f27"/>
        <path id="Path_2652" data-name="Path 2652" d="M970.647,524.761a5.367,5.367,0,0,1,2.059.352,3.862,3.862,0,0,1,1.382.93,3.579,3.579,0,0,1,.776,1.319,4.926,4.926,0,0,1,0,3.061,3.563,3.563,0,0,1-.776,1.327,3.853,3.853,0,0,1-1.382.93,5.371,5.371,0,0,1-2.059.352h-2.98v4.623h-2.835V524.761Zm-.776,6.068a5.908,5.908,0,0,0,.939-.072,2.184,2.184,0,0,0,.795-.28,1.522,1.522,0,0,0,.55-.587,2.478,2.478,0,0,0,0-1.987,1.524,1.524,0,0,0-.55-.587,2.194,2.194,0,0,0-.795-.28,5.937,5.937,0,0,0-.939-.072h-2.2v3.865Z" transform="translate(-959.504 -524.761)" fill="#151f27"/>
        <path id="Path_2653" data-name="Path 2653" d="M1015.249,524.761l4.822,12.894h-2.943l-.975-2.871h-4.822l-1.011,2.871h-2.853l4.876-12.894Zm.162,7.91-1.625-4.732h-.036l-1.68,4.732Z" transform="translate(-991.447 -524.761)" fill="#151f27"/>
        <path id="Path_2654" data-name="Path 2654" d="M1071.844,524.761v2.384h-6.808v2.763h6.248v2.2h-6.248v3.16h6.953v2.384H1062.2V524.761Z" transform="translate(-1032.456 -524.761)" fill="#151f27"/>
      </g>
    </g>
    <line id="Line_8" data-name="Line 8" y2="40" transform="translate(120.5 35.5)" fill="none" stroke="#fff" stroke-width="1"/>
    <text id="EDUCACIÓN_EJECUTIVA" data-name="EDUCACIÓN
EJECUTIVA" transform="translate(141 35)" fill="#fff" font-size="18" font-family="HelveticaNeue-Thin, Helvetica Neue" font-weight="200"><tspan x="0" y="17">EDUCACIÓN</tspan><tspan font-family="HelveticaNeue-Bold, Helvetica Neue" font-weight="700"><tspan x="0" y="40">EJECUTIVA</tspan></tspan></text>
  </g>
</svg>
